<svg xmlns="http://www.w3.org/2000/svg" width="64" height="64" viewBox="0 0 64 64" fill="none">
  <!-- Background circle for visibility at small sizes -->
  <rect width="64" height="64" rx="14" fill="#FAF7F2"/>
  <!-- Folder body -->
  <path d="M10 22C10 20.9 10.9 20 12 20H24L28 14H52C53.1 14 54 14.9 54 16V48C54 49.1 53.1 50 52 50H12C10.9 50 10 49.1 10 48V22Z" fill="#FFD600" stroke="#1976D2" stroke-width="2.5" stroke-linejoin="round"/>
  <!-- Folder tab -->
  <path d="M10 22C10 20.9 10.9 20 12 20H24L28 14H12C10.9 14 10 14.9 10 16V22Z" fill="#E6C100" stroke="#1976D2" stroke-width="2.5" stroke-linejoin="round"/>
  <!-- Left eye -->
  <ellipse cx="25" cy="33" rx="2.5" ry="3.5" fill="#1976D2" transform="rotate(8 25 33)"/>
  <!-- Right eye -->
  <ellipse cx="39" cy="33" rx="2.5" ry="3.5" fill="#1976D2" transform="rotate(-8 39 33)"/>
  <!-- Worried eyebrows -->
  <path d="M20 27.5L27 26" stroke="#1976D2" stroke-width="2.5" stroke-linecap="round"/>
  <path d="M44 27.5L37 26" stroke="#1976D2" stroke-width="2.5" stroke-linecap="round"/>
  <!-- Wavy nervous mouth -->
  <path d="M25 42C27 40 29 43 32 41C35 39 37 42 39 40" stroke="#1976D2" stroke-width="2.5" stroke-linecap="round" fill="none"/>
  <!-- Sweat drop -->
  <path d="M18 28C18 28 16 32 16 34C16 35.7 17 37 18 37C19 37 20 35.7 20 34C20 32 18 28 18 28Z" fill="#5CC0D6" stroke="#1976D2" stroke-width="1.5"/>
</svg>
